<?xml version="1.0" encoding="iso-8859-1"?>
<!-- Generator: Adobe Illustrator 19.0.0, SVG Export Plug-In . SVG Version: 6.00 Build 0)  -->
<svg xmlns="http://www.w3.org/2000/svg" xmlns:xlink="http://www.w3.org/1999/xlink" version="1.1" id="Layer_1" x="0px" y="0px" viewBox="0 0 512 512" style="enable-background:new 0 0 512 512;" xml:space="preserve" width="512px" height="512px">
<g>
	<g>
		<g>
			<path d="M238.933,349.748V162.014c0-14.114-11.486-25.6-25.6-25.6H25.6c-14.114,0-25.6,11.486-25.6,25.6v187.733     c0,14.114,11.486,25.6,25.6,25.6h187.733C227.447,375.348,238.933,363.862,238.933,349.748z M42.667,179.081H128     c4.71,0,8.533,3.823,8.533,8.533s-3.823,8.533-8.533,8.533H42.667c-4.71,0-8.533-3.823-8.533-8.533     S37.956,179.081,42.667,179.081z M34.133,290.014c0-4.71,3.823-8.533,8.533-8.533H76.8c4.71,0,8.533,3.823,8.533,8.533     s-3.823,8.533-8.533,8.533H42.667C37.956,298.548,34.133,294.725,34.133,290.014z M128,332.681H59.733     c-4.71,0-8.533-3.823-8.533-8.533s3.823-8.533,8.533-8.533H128c4.71,0,8.533,3.823,8.533,8.533S132.71,332.681,128,332.681z      M128,264.414H42.667c-4.71,0-8.533-3.823-8.533-8.533c0-4.71,3.823-8.533,8.533-8.533H128c4.71,0,8.533,3.823,8.533,8.533     C136.533,260.592,132.71,264.414,128,264.414z M162.133,230.281H68.267c-4.71,0-8.533-3.823-8.533-8.533     c0-4.71,3.823-8.533,8.533-8.533h93.867c4.71,0,8.533,3.823,8.533,8.533C170.667,226.458,166.844,230.281,162.133,230.281z" fill="#FFFFFF"/>
			<path d="M486.4,136.415H298.667c-14.114,0-25.6,11.486-25.6,25.6v187.733c0,14.114,11.486,25.6,25.6,25.6H486.4     c14.114,0,25.6-11.486,25.6-25.6V162.014C512,147.9,500.514,136.415,486.4,136.415z M315.733,179.081h85.333     c4.71,0,8.533,3.823,8.533,8.533s-3.823,8.533-8.533,8.533h-85.333c-4.71,0-8.533-3.823-8.533-8.533     S311.023,179.081,315.733,179.081z M307.2,290.014c0-4.71,3.823-8.533,8.533-8.533h34.133c4.71,0,8.533,3.823,8.533,8.533     s-3.823,8.533-8.533,8.533h-34.133C311.023,298.548,307.2,294.725,307.2,290.014z M401.067,332.681H332.8     c-4.71,0-8.533-3.823-8.533-8.533s3.823-8.533,8.533-8.533h68.267c4.71,0,8.533,3.823,8.533,8.533     S405.777,332.681,401.067,332.681z M401.067,264.414h-85.333c-4.71,0-8.533-3.823-8.533-8.533c0-4.71,3.823-8.533,8.533-8.533     h85.333c4.71,0,8.533,3.823,8.533,8.533C409.6,260.592,405.777,264.414,401.067,264.414z M435.2,230.281h-93.867     c-4.71,0-8.533-3.823-8.533-8.533c0-4.71,3.823-8.533,8.533-8.533H435.2c4.71,0,8.533,3.823,8.533,8.533     C443.733,226.458,439.91,230.281,435.2,230.281z" fill="#FFFFFF"/>
			<path d="M123.233,92.873c48.051-23.62,86.519-33.254,132.77-33.254c39.876,0,74.001,7.219,113.434,24.337l-36.83,12.339     c-4.463,1.493-6.878,6.332-5.376,10.803c1.195,3.567,4.523,5.828,8.09,5.828c0.896,0,1.809-0.145,2.714-0.452l57.207-19.166     c0.145-0.051,0.247-0.162,0.384-0.222c0.776-0.299,1.485-0.717,2.142-1.237c0.213-0.162,0.427-0.316,0.623-0.503     c0.674-0.649,1.28-1.374,1.724-2.253c0.017-0.034,0.043-0.06,0.06-0.085c0.008-0.009,0.017-0.017,0.017-0.026     c0.119-0.239,0.102-0.495,0.196-0.734c0.307-0.794,0.589-1.604,0.648-2.466c0.06-0.904-0.111-1.783-0.333-2.654     c-0.051-0.205-0.009-0.418-0.077-0.623l-0.017-0.043l-19.157-57.173c-1.493-4.463-6.323-6.895-10.803-5.376     c-4.463,1.493-6.878,6.332-5.376,10.803l12.851,38.366c-42.487-18.714-79.07-26.53-122.121-26.53     c-49.075,0-89.719,10.138-140.305,35.004c-4.224,2.082-5.973,7.194-3.891,11.426C113.889,93.206,118.992,94.955,123.233,92.873z" fill="#FFFFFF"/>
			<path d="M388.767,419.127c-48.051,23.62-86.519,33.254-132.77,33.254c-39.876,0-74.001-7.219-113.434-24.337l36.83-12.339     c4.463-1.493,6.878-6.332,5.376-10.803c-1.493-4.463-6.315-6.878-10.803-5.376l-57.207,19.166     c-0.017,0.009-0.026,0.017-0.034,0.017c-1.05,0.358-2.022,0.913-2.867,1.655c-0.853,0.742-1.536,1.638-2.031,2.637     c-0.009,0.008-0.017,0.008-0.017,0.008c-0.119,0.247-0.102,0.495-0.196,0.734c-0.307,0.802-0.589,1.604-0.649,2.475     c-0.06,0.905,0.111,1.775,0.333,2.645c0.051,0.213,0.009,0.427,0.077,0.631l0.017,0.043l19.157,57.173     c1.195,3.567,4.523,5.828,8.09,5.828c0.896,0,1.809-0.154,2.714-0.452c4.463-1.493,6.878-6.332,5.376-10.803l-12.851-38.366     c42.487,18.714,79.07,26.53,122.121,26.53c49.075,0,89.719-10.138,140.305-35.004c4.224-2.082,5.973-7.194,3.891-11.426     C398.111,418.794,393.008,417.037,388.767,419.127z" fill="#FFFFFF"/>
		</g>
	</g>
</g>
<g>
</g>
<g>
</g>
<g>
</g>
<g>
</g>
<g>
</g>
<g>
</g>
<g>
</g>
<g>
</g>
<g>
</g>
<g>
</g>
<g>
</g>
<g>
</g>
<g>
</g>
<g>
</g>
<g>
</g>
</svg>
