<?xml version="1.0" encoding="iso-8859-1"?>
<!-- Generator: Adobe Illustrator 19.0.0, SVG Export Plug-In . SVG Version: 6.00 Build 0)  -->
<svg xmlns="http://www.w3.org/2000/svg" xmlns:xlink="http://www.w3.org/1999/xlink" version="1.1" id="Layer_1" x="0px" y="0px" viewBox="0 0 512 512" style="enable-background:new 0 0 512 512;" xml:space="preserve" width="512px" height="512px">
<g>
	<g>
		<path d="M256.001,201.384c-30.116,0-54.616,24.502-54.616,54.616s24.502,54.617,54.616,54.617    c30.116,0,54.617-24.502,54.617-54.617S286.116,201.384,256.001,201.384z" fill="#FFFFFF"/>
	</g>
</g>
<g>
	<g>
		<path d="M389.771,128.497h-267.54H25.552v96.679v61.649v96.679h96.678h267.54h96.678v-96.679v-61.649v-96.679H389.771z     M120.733,352.546v0.002c-6.277-32.381-31.844-57.949-64.225-64.226v-64.644c32.381-6.277,57.948-31.844,64.225-64.226h52.078    c-27.119,23.4-44.313,58.002-44.313,96.547s17.194,73.148,44.313,96.547H120.733z M256.001,341.572    c-47.185,0-85.572-38.387-85.572-85.572s38.388-85.572,85.572-85.572c47.185,0,85.572,38.387,85.572,85.572    C341.573,303.185,303.186,341.572,256.001,341.572z M455.494,288.324c-32.381,6.277-57.948,31.844-64.225,64.226H339.19v-0.002    c27.119-23.4,44.313-58.002,44.313-96.547c0-38.545-17.194-73.148-44.313-96.547h52.078c6.277,32.381,31.844,57.949,64.225,64.226    V288.324z" fill="#FFFFFF"/>
	</g>
</g>
<g>
	<g>
		<polygon points="105.351,41.643 125.106,21.889 103.217,0 46.095,57.121 103.217,114.242 125.106,92.353 105.351,72.599     428.539,72.599 428.539,110.521 459.495,110.521 459.495,41.643   " fill="#FFFFFF"/>
	</g>
</g>
<g>
	<g>
		<polygon points="408.785,397.758 386.896,419.647 406.65,439.401 83.462,439.401 83.462,401.48 52.506,401.48 52.506,470.357     406.65,470.357 386.896,490.112 408.785,512 465.906,454.879   " fill="#FFFFFF"/>
	</g>
</g>
<g>
</g>
<g>
</g>
<g>
</g>
<g>
</g>
<g>
</g>
<g>
</g>
<g>
</g>
<g>
</g>
<g>
</g>
<g>
</g>
<g>
</g>
<g>
</g>
<g>
</g>
<g>
</g>
<g>
</g>
</svg>
