<?xml version="1.0" encoding="utf-8"?>
<!-- Generator: Adobe Illustrator 19.2.1, SVG Export Plug-In . SVG Version: 6.00 Build 0)  -->
<svg version="1.1" id="Layer_1" xmlns="http://www.w3.org/2000/svg" xmlns:xlink="http://www.w3.org/1999/xlink" x="0px" y="0px"
	 viewBox="0 0 512 512" style="enable-background:new 0 0 512 512;" xml:space="preserve">
<style type="text/css">
	.st0{fill:#3FB1B5;}
</style>
<g>
	<g>
		<path class="st0" d="M488,315.2c-12.2-12.2-29.4-16.6-45.3-13.2c14.1-28.1,22-59.8,22-93.3C464.8,93.7,371.1,0,256,0
			S47.2,93.7,47.2,208.8c0,44.9,14.2,86.4,38.4,120.5c-20.2,3-38.8,12.9-52.5,28.3c-15.1,17-23.4,38.8-23.4,61.6V468
			c0,7.6,5.6,14,13.1,15.1l189.8,26.5c11.9,1.7,23.8,2.5,35.7,2.5c40.9,0,81.1-9.8,117.9-29.1c12.2-6.4,24-13.8,35.1-22.1
			c24-18,47.1-37.7,68.6-58.5l17.7-17.1c9.5-9.2,14.8-21.6,14.9-34.9C502.5,337,497.4,324.6,488,315.2z M77.7,208.8
			c0-98.3,80-178.3,178.3-178.3s178.3,80,178.3,178.3c0,89.1-65.7,163.2-151.2,176.3h-1.7l19-8.3c0.4-0.2,0.8-0.4,1.2-0.6
			c25.6-13.9,35.9-45.4,23.4-71.7c-1.8-3.8-4-7.3-6.6-10.6c4.6-9.3,7.2-19.7,7.2-30.7c0-33.1-23.3-60.9-54.4-67.9v-76.9
			c14,6,23.9,19.9,23.9,36c0,8.4,6.8,15.2,15.2,15.2c8.4,0,15.2-6.8,15.2-15.2c0-33.1-23.3-60.9-54.4-67.9V72.2
			c0-8.4-6.8-15.2-15.2-15.2s-15.2,6.8-15.2,15.2v14.3c-31.1,7-54.4,34.8-54.4,67.9s23.3,60.9,54.4,67.9v61.5l-13.1,6.3
			c-6.7-7-10.8-16.5-10.8-27c0-8.4-6.8-15.2-15.2-15.2c-8.4,0-15.2,6.8-15.2,15.2c0,15.1,4.8,29.1,13,40.5l-51.8,24.8l-23.8,0
			C95.2,296.7,77.7,254.8,77.7,208.8z M295.1,263.2c0,4.5-0.8,8.8-2.2,12.8c-0.3-0.1-0.6-0.2-0.9-0.3c-6.8-2.1-13.8-2.9-20.8-2.4
			v-46.2C285.3,233.1,295.1,247,295.1,263.2z M240.8,118.4v72.1c-14-6-23.9-19.9-23.9-36S226.7,124.3,240.8,118.4z M466.3,363.3
			l-17.7,17.1c-20.6,20-42.7,38.8-65.7,56c-9.8,7.3-20.2,13.9-30.9,19.5c-41.8,21.8-88.6,29.9-135.3,23.4L40.1,454.7v-35.5
			c0-15.2,5.6-29.9,15.7-41.3c10.8-12.1,26.3-19.1,42.6-19.1c0,0,0,0,0,0l52.7,0c0,0,0,0,0,0c2.3,0,4.5-0.5,6.6-1.5l104.9-50.2
			c0.3-0.1,0.6-0.3,0.9-0.5c6-3.4,12.8-4.1,19.3-2c6.5,2.1,11.7,6.6,14.7,12.8c5.5,11.5,1.1,25.3-9.9,31.6l-85.1,37.2
			c-6.6,2.9-10.3,10-8.8,17.1c1.5,7.1,7.7,12.1,14.9,12.1h101.1c32.3,0,62.7-12.6,85.5-35.4l45.1-43.6c7.3-7,19-6.9,26.1,0.2
			c3.6,3.6,5.5,8.3,5.5,13.3C471.9,355.1,469.9,359.8,466.3,363.3z"/>
	</g>
</g>
</svg>
