<?xml version="1.0" encoding="utf-8"?>
<!-- Generator: Adobe Illustrator 19.2.1, SVG Export Plug-In . SVG Version: 6.00 Build 0)  -->
<svg version="1.1" id="Capa_1" xmlns="http://www.w3.org/2000/svg" xmlns:xlink="http://www.w3.org/1999/xlink" x="0px" y="0px"
	 viewBox="0 0 512 512" style="enable-background:new 0 0 512 512;" xml:space="preserve">
<style type="text/css">
	.st0{fill:#3FB1B5;}
</style>
<path class="st0" d="M107.5,195c0-8.5,6.9-15.4,15.4-15.4h266.2c8.5,0,15.4,6.9,15.4,15.4s-6.9,15.4-15.4,15.4H122.9
	C114.4,210.3,107.5,203.5,107.5,195z M122.9,382.3h266.2c8.5,0,15.4-6.9,15.4-15.4s-6.9-15.4-15.4-15.4H122.9
	c-8.5,0-15.4,6.9-15.4,15.4S114.4,382.3,122.9,382.3z M122.9,266.9h266.2c8.5,0,15.4-6.9,15.4-15.4c0-8.5-6.9-15.4-15.4-15.4H122.9
	c-8.5,0-15.4,6.9-15.4,15.4C107.5,260.1,114.4,266.9,122.9,266.9z M122.9,325.7h266.2c8.5,0,15.4-6.9,15.4-15.4
	c0-8.5-6.9-15.4-15.4-15.4H122.9c-8.5,0-15.4,6.9-15.4,15.4C107.5,318.8,114.4,325.7,122.9,325.7z M465.9,135.7v290.6h30.7
	c8.5,0,15.4,6.9,15.4,15.4c0,8.5-6.9,15.4-15.4,15.4H15.4C6.9,457,0,450.1,0,441.6c0-8.5,6.9-15.4,15.4-15.4h30.7V135.7H15.4
	c-8.5,0-15.4-6.9-15.4-15.4V70.4C0,61.9,6.9,55,15.4,55h481.3c8.5,0,15.4,6.9,15.4,15.4v49.9c0,8.5-6.9,15.4-15.4,15.4H465.9z
	 M435.2,135.7H76.8v290.6h358.4V135.7z"/>
</svg>
