<?xml version="1.0" encoding="utf-8"?>
<!-- Generator: Adobe Illustrator 19.2.1, SVG Export Plug-In . SVG Version: 6.00 Build 0)  -->
<svg version="1.1" id="Layer_1" xmlns="http://www.w3.org/2000/svg" xmlns:xlink="http://www.w3.org/1999/xlink" x="0px" y="0px"
	 viewBox="0 0 512 512" style="enable-background:new 0 0 512 512;" xml:space="preserve">
<style type="text/css">
	.st0{fill:#3FB1B5;}
</style>
<path class="st0" d="M467,115.4c-24.9,0-45,20.2-45,45c0,6.2,1.3,12.2,3.6,17.6l-94.3,94.3c-5.4-2.3-11.3-3.6-17.6-3.6
	s-12.2,1.3-17.6,3.6l-56.3-56.3c2.3-5.4,3.6-11.3,3.6-17.6c0-24.9-20.2-45-45-45s-45,20.2-45,45c0,6.2,1.3,12.2,3.6,17.6l-94.3,94.3
	c-5.4-2.3-11.3-3.6-17.6-3.6c-24.9,0-45,20.2-45,45s20.2,45,45,45s45-20.2,45-45c0-6.2-1.3-12.2-3.6-17.6l94.3-94.3
	c5.4,2.3,11.3,3.6,17.6,3.6c6.2,0,12.2-1.3,17.6-3.6l56.3,56.3c-2.3,5.4-3.6,11.3-3.6,17.6c0,24.9,20.2,45,45,45
	c24.9,0,45-20.2,45-45c0-6.2-1.3-12.2-3.6-17.6l94.3-94.3c5.4,2.3,11.3,3.6,17.6,3.6c24.9,0,45-20.2,45-45S491.8,115.4,467,115.4z"
	/>
</svg>
