<?xml version="1.0" encoding="utf-8"?>
<!-- Generator: Adobe Illustrator 19.2.1, SVG Export Plug-In . SVG Version: 6.00 Build 0)  -->
<svg version="1.1" id="Capa_1" xmlns="http://www.w3.org/2000/svg" xmlns:xlink="http://www.w3.org/1999/xlink" x="0px" y="0px"
	 viewBox="0 0 512 512" style="enable-background:new 0 0 512 512;" xml:space="preserve">
<style type="text/css">
	.st0{fill:#3FB1B5;}
</style>
<g>
	<g>
		<path class="st0" d="M485.8,202.3l-35.9-6.1c-3.7-12.1-8.6-23.7-14.4-34.9l21.2-29.6c9-12.6,7.6-29.8-3.4-40.8L421.3,59
			c-6-6-13.9-9.3-22.4-9.3c-6.6,0-12.9,2-18.3,5.9l-29.7,21.2c-11.6-6.1-23.6-11.1-36.2-14.9l-6-35.5C306.2,11.1,293.1,0,277.5,0
			h-45c-15.5,0-28.7,11.1-31.2,26.4l-6.2,36.4c-12,3.7-23.6,8.7-34.8,14.7l-29.4-21.2c-5.3-3.9-11.8-5.9-18.4-5.9
			c-8.4,0-16.5,3.3-22.4,9.3l-32,31.9c-10.9,10.9-12.4,28.1-3.4,40.8l21.4,30.1c-5.9,11.2-10.6,22.9-14.2,35l-35.5,6
			C11.1,205.9,0,219,0,234.6v45c0,15.5,11.1,28.7,26.4,31.2l36.4,6.2c3.7,12,8.7,23.6,14.7,34.8l-21.1,29.3
			c-9,12.6-7.6,29.8,3.4,40.8l31.9,31.9c6,6,13.9,9.3,22.4,9.3c6.6,0,12.9-2,18.3-5.9l30.1-21.4c10.8,5.7,22.1,10.3,33.8,13.9
			l6,35.9c2.6,15.3,15.7,26.4,31.2,26.4h45.1c15.5,0,28.7-11.1,31.2-26.4l6.1-35.9c12.1-3.7,23.7-8.6,34.9-14.4l29.6,21.2
			c5.3,3.9,11.8,5.9,18.4,5.9l0,0c8.4,0,16.4-3.3,22.4-9.3l31.9-31.9c10.9-10.9,12.4-28.1,3.4-40.8l-21.2-29.7
			c5.9-11.2,10.8-22.9,14.4-34.9l35.9-6c15.3-2.6,26.4-15.7,26.4-31.2v-45C512.2,218,501.1,204.8,485.8,202.3z M483.3,278.5
			c0,1.4-1,2.6-2.4,2.8l-44.9,7.5c-5.7,1-10.2,5.1-11.6,10.6c-4.1,15.7-10.3,30.8-18.6,44.8c-2.9,4.9-2.7,11,0.6,15.7l26.4,37.2
			c0.7,1.1,0.6,2.7-0.3,3.6l-31.9,31.9c-0.7,0.7-1.5,0.9-2,0.9c-0.6,0-1.2-0.2-1.6-0.5L360,406.5c-4.6-3.3-10.8-3.5-15.7-0.6
			c-14,8.3-29.1,14.5-44.8,18.6c-5.6,1.4-9.7,6-10.6,11.6l-7.6,44.9c-0.2,1.4-1.4,2.4-2.8,2.4h-45c-1.4,0-2.6-1-2.8-2.4l-7.5-44.9
			c-1-5.7-5.1-10.2-10.6-11.6c-15.3-4-30.1-10.1-43.9-18c-2.2-1.3-4.8-1.9-7.3-1.9c-2.9,0-5.9,0.9-8.3,2.7l-37.4,26.6
			c-0.5,0.3-1.1,0.5-1.6,0.5c-0.4,0-1.3-0.1-2-0.9l-31.9-31.9c-1-1-1.1-2.5-0.3-3.6l26.3-36.9c3.3-4.7,3.5-10.9,0.6-15.8
			c-8.3-13.9-14.8-29-18.8-44.7c-1.5-5.5-6-9.6-11.6-10.6l-45.2-7.7c-1.4-0.2-2.4-1.4-2.4-2.8v-45c0-1.4,1-2.6,2.4-2.8l44.6-7.5
			c5.7-1,10.3-5.1,11.7-10.7c4-15.7,10.1-30.9,18.3-44.9c2.9-4.9,2.6-11-0.7-15.6l-26.6-37.4c-0.7-1.1-0.6-2.7,0.3-3.6l31.9-31.9
			c0.7-0.7,1.5-0.9,2-0.9c0.6,0,1.2,0.2,1.6,0.5l36.9,26.3c4.7,3.3,10.9,3.5,15.8,0.6c13.9-8.3,29-14.8,44.7-18.8
			c5.5-1.5,9.6-6,10.6-11.6l7.7-45.2c0.2-1.4,1.4-2.4,2.8-2.4h45c1.4,0,2.6,1,2.8,2.4l7.5,44.6c1,5.7,5.1,10.3,10.7,11.7
			c16.2,4.1,31.6,10.4,45.9,18.8c4.9,2.9,11,2.7,15.7-0.6L397.2,79c0.5-0.3,1.1-0.5,1.6-0.5c0.4,0,1.3,0.1,2,0.9l31.9,31.9
			c1,1,1.1,2.5,0.3,3.6L406.6,152c-3.3,4.6-3.5,10.8-0.6,15.7c8.3,14,14.5,29.1,18.6,44.8c1.4,5.6,6,9.7,11.6,10.6l44.9,7.6
			c1.4,0.2,2.4,1.4,2.4,2.8v45H483.3z"/>
		<path class="st0" d="M256.1,145.5c-61,0-110.5,49.5-110.5,110.5s49.5,110.5,110.5,110.5s110.5-49.5,110.5-110.5
			S317,145.5,256.1,145.5z M256.1,337.6c-45,0-81.6-36.6-81.6-81.6s36.6-81.6,81.6-81.6s81.6,36.6,81.6,81.6
			S301.1,337.6,256.1,337.6z"/>
	</g>
</g>
</svg>
