<?xml version="1.0" encoding="utf-8"?>
<!-- Generator: Adobe Illustrator 19.2.1, SVG Export Plug-In . SVG Version: 6.00 Build 0)  -->
<svg version="1.1" id="Capa_1" xmlns="http://www.w3.org/2000/svg" xmlns:xlink="http://www.w3.org/1999/xlink" x="0px" y="0px"
	 viewBox="0 0 512 512" style="enable-background:new 0 0 512 512;" xml:space="preserve">
<style type="text/css">
	.st0{fill:#3FB1B5;}
</style>
<g>
	<path class="st0" d="M460.8,442.6l-29.3-330.1c-0.6-7.3-6.8-12.9-14-12.9h-60.3C356.3,44.5,311.3,0,256,0S155.7,44.5,154.9,99.6
		H94.5c-7.3,0-13.4,5.5-14,12.9L51.2,442.6c0,0.4-0.1,0.8-0.1,1.3c0,37.6,34.4,68.2,76.9,68.2h256.1c42.4,0,76.9-30.6,76.9-68.2
		C460.9,443.4,460.9,443,460.8,442.6z M256,28.3c39.7,0,72,31.8,72.9,71.3H183.1C184,60.1,216.3,28.3,256,28.3z M384.1,483.7H127.9
		c-26.6,0-48.2-17.6-48.6-39.3l28.1-316.5h47.3v42.9c0,7.9,6.3,14.1,14.1,14.1c7.9,0,14.1-6.3,14.1-14.1v-42.9h145.9v42.9
		c0,7.9,6.3,14.1,14.1,14.1c7.9,0,14.1-6.3,14.1-14.1v-42.9h47.3l28.2,316.5C432.2,466.1,410.5,483.7,384.1,483.7z"/>
</g>
</svg>
