<?xml version="1.0" encoding="utf-8"?>
<!-- Generator: Adobe Illustrator 19.2.1, SVG Export Plug-In . SVG Version: 6.00 Build 0)  -->
<svg version="1.1" id="Capa_1" xmlns="http://www.w3.org/2000/svg" xmlns:xlink="http://www.w3.org/1999/xlink" x="0px" y="0px"
	 viewBox="0 0 512 512" style="enable-background:new 0 0 512 512;" xml:space="preserve">
<style type="text/css">
	.st0{fill:#3FB1B5;}
</style>
<g>
	<g>
		<path class="st0" d="M363.8,275.9h-69.6c-19,0-34.5,15.5-34.5,34.5v53.4c0,19,15.5,34.5,34.5,34.5h69.6c19,0,34.5-15.5,34.5-34.5
			v-53.4C398.3,291.4,382.8,275.9,363.8,275.9z M373.2,363.8c0,5.2-4.3,9.4-9.4,9.4h-69.6c-5.2,0-9.4-4.3-9.4-9.4v-53.4
			c0-5.2,4.3-9.4,9.4-9.4h69.6c5.2,0,9.4,4.3,9.4,9.4V363.8z"/>
		<path class="st0" d="M512,178.9c0-2.2-0.5-4.3-1.7-6.2L434.2,38.9c-2.2-3.9-6.4-6.4-10.9-6.4H88.6c-4.5,0-8.7,2.4-10.9,6.4
			L1.7,172.8c-1,1.9-1.7,4-1.7,6.2c0,30,18.1,55.8,43.9,67.2V467c0,6.9,5.6,12.6,12.6,12.6h69.4c0.1,0,0.2,0,0.3,0h97.3
			c0.1,0,0.2,0,0.3,0h231.6c6.9,0,12.6-5.6,12.6-12.6V247.7c0-0.5,0-0.9-0.1-1.4C493.8,234.9,512,209.1,512,178.9z M95.9,57.7h320
			l59.5,104.7h-439L95.9,57.7z M364.4,187.4c-4,22.6-23.7,39.8-47.5,39.8c-23.7,0-43.5-17.2-47.5-39.8H364.4z M242.7,187.4
			c-4,22.6-23.7,39.8-47.5,39.8s-43.5-17.2-47.6-39.8H242.7z M25.9,187.4H121c-4,22.6-23.9,39.8-47.6,39.8
			C49.7,227.3,29.9,210,25.9,187.4z M210.9,454.4h-72.2V318.9c0-9.8,8-17.9,17.9-17.9h36.5c9.8,0,17.9,8,17.9,17.9v135.5H210.9z
			 M442.8,454.4H236V318.9c0-23.6-19.2-43-43-43h-36.5c-23.6,0-43,19.2-43,43v135.6H69V252.3c1.5,0.1,2.9,0.1,4.4,0.1
			c25.3,0,47.7-12.9,60.9-32.4c13.2,19.6,35.6,32.4,60.9,32.4s47.6-12.9,60.9-32.4c13.2,19.6,35.6,32.4,60.8,32.4
			c25.3,0,47.6-12.9,60.8-32.4c13.2,19.6,35.6,32.4,60.9,32.4c1.5,0,2.8-0.1,4.3-0.1L442.8,454.4L442.8,454.4z M438.6,227.3
			c-23.7,0-43.5-17.2-47.5-39.8h95.1C482.1,210,462.3,227.3,438.6,227.3z"/>
	</g>
</g>
</svg>
