<?xml version="1.0" encoding="iso-8859-1"?>
<!-- Generator: Adobe Illustrator 19.0.0, SVG Export Plug-In . SVG Version: 6.00 Build 0)  -->
<svg xmlns="http://www.w3.org/2000/svg" xmlns:xlink="http://www.w3.org/1999/xlink" version="1.1" id="Layer_1" x="0px" y="0px" viewBox="0 0 511.999 511.999" style="enable-background:new 0 0 511.999 511.999;" xml:space="preserve" width="512px" height="512px">
<g>
	<g>
		<g>
			<path d="M261.567,267.71v19.372c4.915-1.157,8.819-3.904,8.819-9.108C270.386,273.204,266.771,270.168,261.567,267.71z" fill="#FFFFFF"/>
			<path d="M244.218,231.858c0,4.193,3.759,6.795,9.252,9.108v-17.203C246.966,225.064,244.218,228.389,244.218,231.858z" fill="#FFFFFF"/>
			<path d="M256.001,121.539c-74.142,0-134.461,60.32-134.461,134.461s60.32,134.461,134.461,134.461S390.462,330.141,390.462,256     S330.143,121.539,256.001,121.539z M263.013,307.177v4.193c0,2.024-2.748,3.904-5.494,3.904c-3.18,0-5.493-1.878-5.493-3.904     v-3.614c-17.347-0.578-31.515-9.541-31.515-18.794c0-4.915,4.337-12.143,9.83-12.143c6.071,0,10.987,8.53,21.685,10.408v-23.419     c-13.299-5.06-28.913-11.276-28.913-29.781c0-18.359,13.589-27.178,28.913-29.346v-4.048c0-2.024,2.313-3.904,5.493-3.904     c2.747,0,5.494,1.88,5.494,3.904v3.614c8.962,0.289,25.877,2.602,25.877,12.577c0,3.904-2.602,11.854-8.963,11.854     c-4.771,0-7.517-4.626-16.914-5.349v21.107c13.155,4.915,28.479,11.71,28.479,31.226     C291.491,293.587,279.926,304.43,263.013,307.177z" fill="#FFFFFF"/>
			<path d="M451.517,36.757L391.821,2.291c-8.163-4.715-18.6-1.917-23.313,6.246c-4.713,8.162-1.916,18.6,6.246,23.313l4.537,2.619     H256.001c-9.425,0-17.066,7.641-17.066,17.066v36.658c0,9.425,7.641,17.066,17.066,17.066c9.425,0,17.066-7.641,17.066-17.066     v-19.59h106.224l-4.536,2.619c-8.162,4.713-10.959,15.15-6.246,23.313c4.716,8.169,15.157,10.957,23.313,6.246l59.696-34.465     C462.897,59.749,462.845,43.294,451.517,36.757z" fill="#FFFFFF"/>
			<path d="M256.001,406.741c-9.425,0-17.066,7.641-17.066,17.066v19.591H132.711l4.536-2.619     c8.162-4.713,10.959-15.15,6.246-23.313c-4.713-8.162-15.15-10.96-23.313-6.246l-59.696,34.465     c-11.274,6.507-11.439,22.958,0,29.559l59.696,34.465c8.158,4.711,18.598,1.919,23.313-6.246     c4.713-8.162,1.916-18.6-6.246-23.313l-4.537-2.619h123.291c9.425,0,17.066-7.641,17.066-17.066v-36.658     C273.067,414.382,265.426,406.741,256.001,406.741z" fill="#FFFFFF"/>
		</g>
	</g>
</g>
<g>
</g>
<g>
</g>
<g>
</g>
<g>
</g>
<g>
</g>
<g>
</g>
<g>
</g>
<g>
</g>
<g>
</g>
<g>
</g>
<g>
</g>
<g>
</g>
<g>
</g>
<g>
</g>
<g>
</g>
</svg>
