<?xml version="1.0" encoding="iso-8859-1"?>
<!-- Generator: Adobe Illustrator 18.0.0, SVG Export Plug-In . SVG Version: 6.00 Build 0)  -->
<!DOCTYPE svg PUBLIC "-//W3C//DTD SVG 1.1//EN" "http://www.w3.org/Graphics/SVG/1.1/DTD/svg11.dtd">
<svg xmlns="http://www.w3.org/2000/svg" xmlns:xlink="http://www.w3.org/1999/xlink" version="1.1" id="Capa_1" x="0px" y="0px" viewBox="0 0 297 297" style="enable-background:new 0 0 297 297;" xml:space="preserve" width="512px" height="512px">
<g>
	<path d="M263.535,0H33.465C15.013,0,0,15.013,0,33.465v230.07C0,281.987,15.013,297,33.465,297h230.07   C281.987,297,297,281.987,297,263.535V33.465C297,15.013,281.987,0,263.535,0z M276.085,263.535c0,6.92-5.63,12.55-12.55,12.55   H33.465c-6.92,0-12.55-5.63-12.55-12.55V33.465c0-6.92,5.63-12.55,12.55-12.55h230.07c6.92,0,12.55,5.63,12.55,12.55V263.535z" fill="#006df0"/>
	<path d="M200.148,148.494l41.934-42.023c4.072-4.082,4.072-10.691-0.002-14.773L205.21,54.753   c-1.962-1.966-4.625-3.071-7.402-3.071c-2.777,0-5.441,1.106-7.403,3.071l-41.906,41.999l-41.917-41.988   c-1.962-1.965-4.625-3.069-7.402-3.069c-2.776,0-5.439,1.105-7.4,3.07L54.905,91.711c-4.075,4.083-4.074,10.694,0.001,14.776   l41.956,42.025l-41.922,42.02c-4.072,4.081-4.072,10.689,0,14.771l36.851,36.943c1.962,1.966,4.626,3.072,7.403,3.072h0.001   c2.776,0,5.44-1.105,7.402-3.071l41.918-42.003l41.906,41.972c1.961,1.965,4.623,3.068,7.4,3.068c2.775,0,5.438-1.104,7.399-3.068   l36.87-36.927c4.077-4.082,4.077-10.694,0.001-14.776L200.148,148.494z M197.822,220.026l-41.909-41.972   c-1.962-1.965-4.624-3.069-7.4-3.069c-2.777,0-5.439,1.105-7.401,3.071l-41.914,41.998l-22.081-22.136l41.925-42.024   c4.073-4.083,4.072-10.692-0.003-14.774L77.083,99.098l22.098-22.143l41.918,41.988c1.962,1.965,4.626,3.069,7.402,3.069   c2.777,0,5.44-1.105,7.402-3.071l41.905-41.996l22.095,22.14l-41.934,42.024c-4.074,4.083-4.073,10.692,0.002,14.774l41.942,42.017   L197.822,220.026z" fill="#006df0"/>
</g>
<g>
</g>
<g>
</g>
<g>
</g>
<g>
</g>
<g>
</g>
<g>
</g>
<g>
</g>
<g>
</g>
<g>
</g>
<g>
</g>
<g>
</g>
<g>
</g>
<g>
</g>
<g>
</g>
<g>
</g>
</svg>
