<?xml version="1.0" encoding="iso-8859-1"?>
<svg xmlns="http://www.w3.org/2000/svg" xmlns:xlink="http://www.w3.org/1999/xlink" version="1.1" viewBox="0 0 137.145 137.145" enable-background="new 0 0 137.145 137.145" width="512px" height="512px">
  <g>
    <g>
      <path d="m109.716,0h-82.287c-15.149,0-27.429,12.281-27.429,27.429v82.288c0,15.148 12.28,27.428 27.429,27.428h82.286c15.148,0 27.428-12.28 27.428-27.428v-82.288c0.001-15.148-12.279-27.429-27.427-27.429zm13.714,102.859c0,11.361-9.21,20.571-20.572,20.571h-68.572c-11.361,0-20.571-9.21-20.571-20.571v-68.573c0-11.361 9.21-20.572 20.571-20.572h68.572c11.361,0 20.572,9.211 20.572,20.572v68.573zm-96.001,6.857h6.857v-82.287h-6.857v82.287zm20.571,0h13.714v-82.287h-13.714v82.287zm34.287,0h6.857v-82.287h-6.857v82.287zm20.571,0h6.857v-82.287h-6.857v82.287zm-34.286,0h6.857v-82.287h-6.857v82.287z" fill="#a4e562"/>
    </g>
  </g>
</svg>
