<?xml version="1.0" encoding="iso-8859-1"?>
<!-- Generator: Adobe Illustrator 19.1.0, SVG Export Plug-In . SVG Version: 6.00 Build 0)  -->
<svg xmlns="http://www.w3.org/2000/svg" xmlns:xlink="http://www.w3.org/1999/xlink" version="1.1" id="Capa_1" x="0px" y="0px" viewBox="0 0 491.1 491.1" style="enable-background:new 0 0 491.1 491.1;" xml:space="preserve" width="512px" height="512px">
<g>
	<g>
		<path d="M458.3,362.9c-7.2-22.3-22.1-36.9-43-42.2c-92.3-23.2-110-52.8-113.3-62.1c7.1-4.5,13.5-10.1,19.3-16.6    c40.6-45.8,33.8-124.3,33.1-131.7c-2.6-54.6-27.9-81.3-48.6-94.2C282.3,1.5,257.4,0,247.8,0c-1,0-1.7,0-2.3,0c-0.6,0-1.4,0-2.3,0    c-9.6,0-34.4,1.6-58,16.1c-20.7,12.8-46,39.6-48.6,94.2c-0.7,7.4-7.5,85.9,33.1,131.7c5.8,6.5,12.3,12.1,19.4,16.6    c-1.1,2.9-3.8,8.3-10.2,14.8c-12.7,13-41,31.7-103.3,47.3c-20.9,5.3-35.8,19.9-43,42.2C27,380.1,27,398.3,27,409.1v31.4    c0,7.5,6,13.5,13.5,13.5S54,448,54,440.5v-31.4c0-28.6,3.4-56,28.2-62.3c54.9-13.8,93.9-32.1,115.9-54.6    c8.4-8.5,13-16.4,15.6-22.7c9.3,2.7,19.4,4.1,30.1,4.3c0.6,0,1.1,0,1.7,0c0.2,0,0.4,0,0.7,0c0.4,0,0.7,0,1.1,0    c10.8-0.2,20.8-1.6,30.1-4.3c2.6,6.3,7.2,14.1,15.6,22.7c22,22.4,61,40.8,115.9,54.5c24.8,6.3,28.2,33.7,28.2,62.3v31.4    c0,7.5,6,13.5,13.5,13.5s13.5-6,13.5-13.5V409C463.9,398.3,463.9,380.2,458.3,362.9z M245.9,247c-0.2,0-0.3,0-0.5,0l0,0l0,0    c-0.2,0-0.3,0-0.5,0c-23.6-0.2-41.6-7.7-55.1-22.9c-33.8-38-26.5-110.6-26.4-111.4c0-0.3,0.1-0.6,0.1-0.8    c3.6-78.8,61.9-84.9,79.6-84.9c0.8,0,1.4,0,1.8,0c0.4,0,0.7,0,1.1,0s1,0,1.8,0c17.8,0,76,6.1,79.6,84.9c0,0.3,0,0.6,0.1,0.8    c0.1,0.7,7.4,73.4-26.4,111.4C287.5,239.3,269.5,246.8,245.9,247z" fill="#535353"/>
		<path d="M303.4,371.1c-5.3-5.3-13.8-5.3-19.1,0L245.4,410l-38.9-38.9c-5.3-5.3-13.8-5.3-19.1,0s-5.3,13.8,0,19.1l38.9,38.9    L187.4,468c-5.3,5.3-5.3,13.8,0,19.1c2.6,2.6,6.1,4,9.5,4c3.5,0,6.9-1.3,9.5-4l38.9-38.9l38.9,38.9c2.6,2.6,6.1,4,9.5,4    s6.9-1.3,9.5-4c5.3-5.3,5.3-13.8,0-19.1l-38.9-38.9l38.9-38.9C308.7,385,308.7,376.4,303.4,371.1z" fill="#535353"/>
	</g>
</g>
<g>
</g>
<g>
</g>
<g>
</g>
<g>
</g>
<g>
</g>
<g>
</g>
<g>
</g>
<g>
</g>
<g>
</g>
<g>
</g>
<g>
</g>
<g>
</g>
<g>
</g>
<g>
</g>
<g>
</g>
</svg>
